<?xml version="1.0" encoding="UTF-8"?>
<svg version="1.1" xmlns="http://www.w3.org/2000/svg" width="53" height="51">
<path d="M0 0 C17.49 0 34.98 0 53 0 C53 16.83 53 33.66 53 51 C35.51 51 18.02 51 0 51 C0 34.17 0 17.34 0 0 Z " fill="#F07014" transform="translate(0,0)"/>
<path d="M0 0 C17.49 0 34.98 0 53 0 C53 16.83 53 33.66 53 51 C35.51 51 18.02 51 0 51 C0 34.17 0 17.34 0 0 Z M10.1875 10.875 C5.46012419 17.62839402 3.80961388 22.7588653 5 31 C7.3373687 37.9255369 11.76800869 42.34946116 18 46 C23.83975768 47.94658589 30.5657918 48.02507879 36.25 45.5 C41.4716357 42.49621369 46.08744292 37.73767125 48 32 C48.83908769 21.93665434 48.83908769 21.93665434 45 13 C39.51894888 7.42403891 34.75817423 3.74179702 26.6875 3.625 C19.8403036 3.77244972 14.77112615 5.70651947 10.1875 10.875 Z " fill="#FEFCFB" transform="translate(0,0)"/>
<path d="M0 0 C1.97806641 -0.04253906 1.97806641 -0.04253906 3.99609375 -0.0859375 C8.14859603 0.45074954 8.77752998 1.47768511 11.5625 4.375 C13.2125 4.045 14.8625 3.715 16.5625 3.375 C16.5625 7.005 16.5625 10.635 16.5625 14.375 C11.5625 13.375 11.5625 13.375 9.5625 12.375 C9.5625 13.695 9.5625 15.015 9.5625 16.375 C6.40294583 17.95477708 3.02786183 17.55947084 -0.4375 17.5625 C-1.17484375 17.57474609 -1.9121875 17.58699219 -2.671875 17.59960938 C-4.59520058 17.60487395 -6.51804263 17.49703447 -8.4375 17.375 C-11.22529879 14.58720121 -10.73711733 12.75697673 -10.75 8.875 C-10.76675781 7.7096875 -10.78351562 6.544375 -10.80078125 5.34375 C-10.68089844 4.3640625 -10.56101562 3.384375 -10.4375 2.375 C-6.84522276 -0.0198515 -4.1551193 0.00796763 0 0 Z " fill="#FEF8F4" transform="translate(23.4375,16.625)"/>
</svg>
