<svg width="240" height="196" viewBox="0 0 240 196" fill="none" xmlns="http://www.w3.org/2000/svg">
<path d="M234.835 46.0235L230.177 68.5802L227.181 65.6569L222.079 69.2937L218.182 64.4552L209.437 70.8118L201.969 58.3171L193.635 63.198L190.331 58.6408L179.749 64.6031L176.564 57.7876L183.982 21.8621L223.749 30.0726L234.835 46.0235Z" fill="#E7E8E5"/>
<path d="M223.75 30.0635L234.837 46.012L221.045 43.1646L223.75 30.0635Z" fill="#D4D6D3"/>
<path d="M229.187 73.0806L222.355 106.175L168.794 95.1194L175.574 62.2885L178.758 69.1041L189.34 63.1417L192.644 67.6989L200.979 62.8181L208.446 75.3127L217.191 68.9556L221.088 73.7941L226.19 70.1578L229.187 73.0806Z" fill="#E7E8E5"/>
<path d="M152.524 69.2017L97.9382 72.5801L93.6016 2.50811L134.132 3.05176e-05L149.014 12.4815L152.524 69.2017Z" fill="#E7E8E5"/>
<path d="M134.131 0.000523567L149.013 12.482L134.957 13.3523L134.131 0.000523567Z" fill="#D4D6D3"/>
<path d="M232.558 118.895C234.47 118.895 236.018 120.443 236.018 122.354C236.018 124.266 234.47 125.817 232.558 125.817C230.647 125.817 229.096 124.266 229.096 122.354C229.096 120.443 230.647 118.895 232.558 118.895ZM230.668 114.854L227.008 116.966L227.654 118.087C227.845 118.416 227.827 118.821 227.619 119.14C227.504 119.316 227.398 119.499 227.303 119.687C227.131 120.025 226.789 120.242 226.41 120.242H225.116V124.47H226.41C226.789 124.47 227.131 124.687 227.303 125.025C227.398 125.213 227.504 125.396 227.619 125.573C227.827 125.891 227.845 126.296 227.654 126.626L227.008 127.746L230.668 129.857L231.315 128.732C231.505 128.402 231.867 128.221 232.248 128.24C232.351 128.246 232.455 128.249 232.558 128.249C232.662 128.249 232.766 128.246 232.869 128.24C233.248 128.221 233.609 128.401 233.797 128.729L234.45 129.857L238.11 127.746L237.462 126.622C237.272 126.293 237.291 125.887 237.499 125.569C237.613 125.393 237.719 125.212 237.814 125.025C237.987 124.687 238.328 124.47 238.706 124.47H240V120.242H238.706C238.328 120.242 237.987 120.025 237.814 119.688C237.719 119.5 237.613 119.319 237.499 119.143C237.291 118.825 237.272 118.419 237.462 118.09L238.11 116.966L234.45 114.854L233.801 115.978C233.611 116.307 233.251 116.488 232.872 116.468C232.768 116.464 232.664 116.461 232.558 116.461C232.455 116.461 232.351 116.464 232.248 116.468C231.867 116.488 231.505 116.306 231.315 115.977L230.668 114.854Z" fill="#E7E8E5"/>
<path d="M0 158.98L29.9791 158.892L59.958 158.859L119.916 158.798L179.873 158.859L209.853 158.891L239.832 158.98L209.853 159.07L179.873 159.102L119.916 159.163L59.958 159.102L29.9791 159.07L0 158.98Z" fill="#17282F"/>
<path d="M233.626 179.97C233.626 188.438 183.043 195.302 120.646 195.302C58.2491 195.302 7.66602 188.438 7.66602 179.97C7.66602 171.503 58.2491 164.639 120.646 164.639C183.043 164.639 233.626 171.503 233.626 179.97Z" fill="#E7E8E5"/>
<path d="M53.0468 71.3902C53.6766 72.1504 54.3196 72.9165 54.8798 73.7299C55.44 74.5441 55.972 75.3779 56.4543 76.2404C57.6361 78.3557 58.0454 79.865 58.0099 79.7745C57.1717 77.6348 55.2112 74.6902 54.651 73.8759C54.0923 73.064 53.5739 72.2234 53.0151 71.4106L53.0468 71.3902Z" fill="#17282F"/>
<path d="M50.0717 73.354C51.1512 74.2096 53.4165 77.3962 54.2896 79.5309C54.3261 79.6205 54.2779 79.6137 54.2249 79.5319C53.541 78.4772 50.7779 74.3873 50.0464 73.3705L50.0717 73.354Z" fill="#17282F"/>
<path d="M47.2132 74.5889C48.4631 75.8257 49.5125 77.5151 50.338 79.4668C50.375 79.5554 50.3044 79.5418 50.2533 79.4581C49.2453 77.8169 48.4655 76.5222 47.1616 74.6317L47.2132 74.5889Z" fill="#17282F"/>
<path d="M190.723 183.165H42.4302L63.8727 61.5564H212.166L190.723 183.165Z" fill="#FABB1E"/>
<path d="M114.625 48.9664H66.0925L63.8721 61.5603H115.811L114.625 48.9664Z" fill="#FABB1E"/>
<path d="M190.723 183.165H42.4302L63.8727 61.5564H212.166L209.93 74.236L204.932 102.581L190.723 183.165Z" fill="#B95648"/>
<path d="M115.811 61.5603H63.8721L66.0925 48.9664H114.625L115.811 61.5603Z" fill="#B95648"/>
<path d="M53.6035 67.2568C53.088 67.7761 52.4981 68.1665 51.8912 68.5262C51.276 68.8732 50.6432 69.1886 49.9351 69.3745C50.45 68.8547 51.0399 68.4639 51.6478 68.1051C52.2631 67.7591 52.8958 67.4437 53.6035 67.2568Z" fill="#17282F"/>
<path d="M56.8399 70.3719C56.653 71.0796 56.3371 71.7123 55.9915 72.328C55.6323 72.9354 55.242 73.5253 54.7217 74.0403C54.9076 73.3326 55.2235 72.6994 55.57 72.0846C55.9302 71.4772 56.3206 70.8873 56.8399 70.3719Z" fill="#17282F"/>
<path d="M61.1975 71.4469C61.3897 72.1531 61.4325 72.8589 61.4408 73.5646C61.4335 74.2709 61.3907 74.9766 61.1975 75.6829C61.0047 74.9766 60.9614 74.2709 60.9546 73.5646C60.9624 72.8589 61.0057 72.1531 61.1975 71.4469Z" fill="#17282F"/>
<path d="M65.5107 70.2007C66.0301 70.7162 66.4204 71.3061 66.7801 71.913C67.1271 72.5282 67.4425 73.161 67.6285 73.8691C67.1086 73.3542 66.7183 72.7643 66.3591 72.1564C66.013 71.5412 65.6976 70.9079 65.5107 70.2007Z" fill="#17282F"/>
<path d="M68.6221 66.9602C69.3298 67.1466 69.9625 67.4624 70.5782 67.808C71.1856 68.1672 71.7755 68.5576 72.2905 69.0779C71.5828 68.892 70.9496 68.5761 70.3348 68.2295C69.7274 67.8693 69.1375 67.479 68.6221 66.9602Z" fill="#17282F"/>
<path d="M190.505 183.165H41.8918L20.7915 65.9715H169.405L190.505 183.165Z" fill="#FF725E"/>
<path d="M78.4677 131.437C78.4677 134.849 75.7022 137.614 72.2907 137.614C68.8793 137.614 66.1138 134.849 66.1138 131.437C66.1138 128.026 68.8793 125.26 72.2907 125.26C75.7022 125.26 78.4677 128.026 78.4677 131.437Z" fill="#17282F"/>
<path d="M127.298 131.437C127.298 134.849 124.532 137.614 121.121 137.614C117.71 137.614 114.944 134.849 114.944 131.437C114.944 128.026 117.71 125.26 121.121 125.26C124.532 125.26 127.298 128.026 127.298 131.437Z" fill="#17282F"/>
<path d="M105.579 138.595L105.239 137.949C105.209 137.89 102.018 131.992 95.5969 131.992C89.7411 131.992 88.3136 137.546 88.2556 137.782L88.0824 138.49L86.666 138.148L86.8364 137.439C86.8529 137.37 88.5764 130.532 95.5969 130.532C102.916 130.532 106.388 136.996 106.533 137.271L106.872 137.917L105.579 138.595Z" fill="#17282F"/>
<path d="M180.695 130.963C181.015 130.895 181.334 130.82 181.651 130.739L181.531 130.267C181.219 130.347 180.906 130.421 180.593 130.488L180.695 130.964" fill="#17282F"/>
<path d="M183.536 130.177C184.159 129.966 184.772 129.733 185.375 129.478L185.186 129.03C184.594 129.28 183.991 129.509 183.38 129.715L183.536 130.177ZM187.158 128.645C187.744 128.343 188.317 128.021 188.873 127.678L188.618 127.264C188.072 127.599 187.511 127.916 186.935 128.212L187.158 128.645ZM190.507 126.581C191.041 126.191 191.555 125.781 192.046 125.353L191.726 124.986C191.246 125.404 190.743 125.806 190.22 126.189L190.507 126.581ZM193.472 123.993C193.931 123.513 194.362 123.015 194.761 122.501L194.377 122.202C193.988 122.703 193.568 123.188 193.12 123.657L193.472 123.993ZM195.886 120.877C196.233 120.309 196.542 119.725 196.81 119.127L196.367 118.928C196.107 119.506 195.807 120.072 195.471 120.623L195.886 120.877ZM197.496 117.268C197.68 116.634 197.817 115.986 197.905 115.329L197.422 115.266C197.339 115.898 197.206 116.521 197.028 117.133L197.496 117.268ZM198.033 113.356C198.033 113.309 198.033 113.262 198.033 113.214C198.033 112.595 198.001 111.986 197.939 111.388L197.455 111.438C197.515 112.02 197.546 112.612 197.546 113.214C197.546 113.26 197.546 113.306 197.546 113.352L198.033 113.356ZM197.632 109.442C197.495 108.797 197.326 108.163 197.128 107.538L196.664 107.685C196.857 108.296 197.023 108.914 197.156 109.543L197.632 109.442ZM196.455 105.692C196.206 105.088 195.934 104.493 195.643 103.903L195.207 104.119C195.494 104.7 195.761 105.285 196.005 105.877L196.455 105.692ZM194.724 102.171C194.405 101.605 194.071 101.044 193.725 100.486L193.311 100.742C193.654 101.296 193.985 101.851 194.3 102.41L194.724 102.171ZM192.672 98.8377C192.317 98.296 191.953 97.7552 191.586 97.2145L191.184 97.488C191.55 98.0273 191.912 98.5661 192.265 99.1049L192.672 98.8377ZM190.488 95.6054C190.122 95.0704 189.756 94.5346 189.393 93.9958L188.99 94.2678C189.354 94.8081 189.721 95.345 190.086 95.8799L190.488 95.6054ZM188.32 92.3745C187.967 91.8313 187.621 91.2842 187.284 90.7318L186.869 90.9849C187.208 91.5422 187.557 92.0932 187.911 92.6398L188.32 92.3745ZM186.306 89.0575C185.992 88.4934 185.69 87.9229 185.404 87.3447L184.968 87.5603C185.257 88.1468 185.563 88.7246 185.881 89.2945L186.306 89.0575ZM184.598 85.5891C184.349 84.9982 184.118 84.3986 183.91 83.7887L183.449 83.9464C183.662 84.5679 183.896 85.1778 184.15 85.7784L184.598 85.5891ZM183.357 81.9431C183.198 81.3274 183.063 80.7004 182.955 80.0609L182.475 80.1422C182.586 80.7954 182.723 81.4359 182.885 82.0642L183.357 81.9431ZM182.717 78.1525C182.671 77.5737 182.646 76.9843 182.646 76.3842C182.646 76.3321 182.646 76.28 182.647 76.2284L182.16 76.225C182.16 76.2781 182.16 76.3311 182.16 76.3842C182.16 76.9975 182.184 77.5995 182.232 78.1914L182.717 78.1525ZM182.742 74.303C182.754 74.1696 182.768 74.0358 182.783 73.9009C182.839 73.3836 182.911 72.8813 182.996 72.3941L182.517 72.3094C182.429 72.8073 182.356 73.3203 182.299 73.8484C182.284 73.9856 182.27 74.1224 182.257 74.2587L182.742 74.303ZM183.417 70.5177C183.593 69.8811 183.795 69.2742 184.021 68.695L183.568 68.5178C183.335 69.113 183.128 69.736 182.948 70.3887L183.417 70.5177ZM184.818 66.9505C185.124 66.3728 185.457 65.8277 185.814 65.3132L185.414 65.0358C185.046 65.5658 184.703 66.128 184.388 66.7232L184.818 66.9505ZM187.002 63.8102C187.433 63.3279 187.889 62.8796 188.365 62.463L188.045 62.0969C187.554 62.5257 187.084 62.9881 186.639 63.4856L187.002 63.8102ZM189.881 61.2866C190.412 60.9215 190.961 60.5891 191.522 60.2863L191.292 59.858C190.715 60.1681 190.152 60.5102 189.606 60.8855L189.881 61.2866ZM193.261 59.4613C193.857 59.2136 194.462 58.9955 195.072 58.8052L194.927 58.3404C194.303 58.5351 193.684 58.7585 193.074 59.0121L193.261 59.4613ZM196.935 58.3088C197.569 58.1681 198.204 58.0537 198.834 57.9647L198.766 57.4828C198.124 57.5738 197.476 57.6902 196.829 57.8337L196.935 58.3088ZM200.755 57.7666C201.335 57.7281 201.906 57.7101 202.465 57.7101C202.539 57.7101 202.612 57.7106 202.685 57.7111L202.69 57.2244C202.615 57.2239 202.54 57.2234 202.465 57.2234C201.896 57.2234 201.314 57.2419 200.723 57.2808L200.755 57.7666ZM204.613 57.8016C205.283 57.8595 205.923 57.9433 206.523 58.0494L206.608 57.5699C205.992 57.4614 205.338 57.3757 204.654 57.3164L204.613 57.8016ZM208.392 58.4855C208.502 58.5181 208.609 58.5517 208.713 58.5862C209.249 58.7624 209.732 58.962 210.165 59.1795L210.384 58.7449C209.927 58.5152 209.422 58.3068 208.866 58.1238C208.757 58.0883 208.646 58.0533 208.532 58.0192L208.392 58.4855ZM211.73 60.2197C212.247 60.6772 212.621 61.1688 212.866 61.6691L213.303 61.4545C213.027 60.8923 212.613 60.3506 212.053 59.8551L211.73 60.2197ZM213.23 63.4325C213.191 64.0322 212.989 64.6114 212.639 65.1307L213.043 65.4028C213.438 64.8163 213.671 64.1529 213.716 63.4641L213.23 63.4325ZM211.304 66.3796C210.81 66.6785 210.23 66.9106 209.571 67.0508L209.673 67.5268C210.382 67.3759 211.013 67.1248 211.556 66.7963L211.304 66.3796ZM207.696 67.1924C207.44 67.1803 207.177 67.1559 206.907 67.1189C206.535 67.0678 206.167 67.006 205.804 66.9335L205.708 67.411C206.081 67.4855 206.459 67.5487 206.84 67.6013C207.125 67.6402 207.402 67.6655 207.673 67.6787L207.696 67.1924ZM203.943 66.456C203.328 66.2623 202.728 66.036 202.145 65.779L201.949 66.2244C202.548 66.4886 203.164 66.7208 203.797 66.9204L203.943 66.456ZM200.434 64.9083C199.879 64.586 199.344 64.2337 198.829 63.853L198.54 64.2444C199.069 64.6357 199.619 64.9978 200.189 65.3288L200.434 64.9083ZM197.35 62.6289C196.882 62.1953 196.435 61.7358 196.013 61.2515L195.646 61.5713C196.08 62.0687 196.538 62.5408 197.02 62.9862L197.35 62.6289ZM194.827 59.7388C194.461 59.218 194.119 58.6753 193.803 58.1117L193.378 58.3497C193.702 58.9274 194.053 59.4847 194.428 60.0191L194.827 59.7388ZM192.946 56.3896C192.691 55.8075 192.462 55.2079 192.259 54.5917L191.797 54.744C192.004 55.3743 192.239 55.9886 192.5 56.5848L192.946 56.3896ZM191.742 52.7373C191.6 52.1191 191.483 51.4869 191.393 50.843L190.911 50.9101C191.003 51.5682 191.122 52.2141 191.268 52.8463L191.742 52.7373ZM191.207 48.9243C191.184 48.493 191.172 48.0565 191.172 47.616C191.172 47.4101 191.174 47.2037 191.18 46.9964L190.693 46.9837C190.688 47.1955 190.685 47.4062 190.685 47.616C190.685 48.0657 190.697 48.5106 190.722 48.9511L191.207 48.9243ZM191.303 45.0709C191.367 44.4406 191.456 43.803 191.569 43.1591L191.09 43.0744C190.974 43.73 190.884 44.3793 190.818 45.0218L191.303 45.0709ZM191.97 41.2696C192.122 40.6544 192.298 40.0343 192.496 39.4103L192.032 39.2624C191.83 39.8966 191.652 40.5264 191.497 41.1523L191.97 41.2696ZM193.14 37.5871C193.377 36.9767 193.633 36.3873 193.907 35.8183L193.468 35.6076C193.189 36.1877 192.928 36.7884 192.686 37.4109L193.14 37.5871ZM194.811 34.1153C195.14 33.5507 195.485 33.0085 195.846 32.4886L195.446 32.2112C195.078 32.7417 194.725 33.2947 194.39 33.8705L194.811 34.1153ZM197.005 30.9467C197.417 30.4405 197.843 29.9577 198.279 29.4973L197.926 29.1624C197.482 29.6316 197.048 30.1237 196.628 30.6396L197.005 30.9467ZM199.657 28.1447C200.14 27.7027 200.631 27.2851 201.127 26.8913L200.824 26.5102C200.32 26.9113 199.82 27.3357 199.328 27.7855L199.657 28.1447ZM202.678 25.7378C203.22 25.3616 203.762 25.0106 204.3 24.6841L204.048 24.2684C203.502 24.5994 202.951 24.9557 202.4 25.3382L202.678 25.7378ZM205.983 23.7291C206.577 23.4147 207.158 23.1299 207.719 22.8715L207.515 22.4296C206.946 22.6909 206.357 22.98 205.755 23.2993L205.983 23.7291ZM209.5 22.1112C210.158 21.8513 210.77 21.6328 211.321 21.4503L211.168 20.9884C210.609 21.1733 209.988 21.3953 209.321 21.6586L209.5 22.1112Z" fill="#17282F"/>
<path d="M213.269 20.8811C213.568 20.8042 213.801 20.7497 213.96 20.7146C214.039 20.6971 214.099 20.6849 214.14 20.6767L214.199 20.665L214.11 20.1865C214.105 20.1875 213.756 20.2527 213.148 20.4095L213.269 20.8811Z" fill="#17282F"/>
<path d="M221.875 17.7406C220.632 13.8935 212.319 15.2758 213.942 20.3017C215.565 25.3281 223.117 21.5877 221.875 17.7406Z" fill="#17282F"/>
<path d="M209.421 16.1834C209.483 14.4959 211.83 13.1978 215.148 13.797C218.465 14.3962 221.59 16.6307 221.59 16.6307C221.59 16.6307 218.31 18.6375 214.957 18.9913C211.605 19.3451 209.358 17.8782 209.421 16.1834Z" fill="#E7E8E5"/>
<path d="M221.589 16.6359C219.867 16.6476 218.147 16.5897 216.426 16.5371C214.707 16.4636 212.987 16.3955 211.27 16.2568C212.993 16.2436 214.713 16.3025 216.434 16.3551C218.153 16.4286 219.872 16.4972 221.589 16.6359Z" fill="#17282F"/>
<path d="M212.754 14.6884C213.252 14.9113 213.714 15.1936 214.178 15.4715C214.63 15.7674 215.086 16.0585 215.504 16.4094C215.005 16.1865 214.545 15.9037 214.081 15.6258C213.628 15.3299 213.172 15.0383 212.754 14.6884Z" fill="#17282F"/>
<path d="M217.264 16.4727C216.828 16.8426 216.354 17.1541 215.883 17.47C215.4 17.7684 214.921 18.0711 214.403 18.3145C214.838 17.9436 215.313 17.6326 215.784 17.3167C216.267 17.0188 216.746 16.7166 217.264 16.4727Z" fill="#17282F"/>
<path d="M217.766 15.5201C218.023 15.6306 218.236 15.7956 218.452 15.9562C218.655 16.1334 218.862 16.3066 219.024 16.5349C218.766 16.4249 218.554 16.2594 218.338 16.0983C218.135 15.9212 217.928 15.7474 217.766 15.5201Z" fill="#17282F"/>
<path d="M212.582 26.1945C213.619 27.5267 216.283 27.2069 218.624 24.7806C220.965 22.3548 222.193 18.7146 222.193 18.7146C222.193 18.7146 218.358 19.0056 215.431 20.679C212.504 22.3528 211.541 24.856 212.582 26.1945Z" fill="#E7E8E5"/>
<path d="M222.191 18.7134C220.786 19.7112 219.425 20.7645 218.06 21.8129C216.709 22.8783 215.354 23.9394 214.042 25.0564C215.447 24.0591 216.808 23.0058 218.172 21.957C219.524 20.891 220.879 19.83 222.191 18.7134Z" fill="#17282F"/>
<path d="M216.16 25.4556C216.433 24.9834 216.642 24.4846 216.856 23.9881C217.05 23.4834 217.25 22.9811 217.384 22.4515C217.109 22.9236 216.9 23.4225 216.687 23.9195C216.493 24.4242 216.294 24.927 216.16 25.4556Z" fill="#17282F"/>
<path d="M218.777 21.3716C218.206 21.3263 217.64 21.3511 217.073 21.3701C216.507 21.4105 215.941 21.4455 215.378 21.5512C215.948 21.5969 216.515 21.5716 217.082 21.5521C217.648 21.5117 218.215 21.4767 218.777 21.3716Z" fill="#17282F"/>
<path d="M219.739 21.8508C219.882 21.6104 219.959 21.3524 220.041 21.0949C220.101 20.8326 220.168 20.5712 220.166 20.2919C220.022 20.5313 219.946 20.7898 219.864 21.0468C219.803 21.3096 219.737 21.571 219.739 21.8508Z" fill="#17282F"/>
<path d="M221.874 17.73C221.107 17.9777 220.286 17.5567 220.038 16.7906C219.79 16.024 220.211 15.2019 220.977 14.9547C221.744 14.707 222.566 15.128 222.813 15.8941C223.061 16.6607 222.64 17.4827 221.874 17.73Z" fill="#33535F"/>
<path d="M222.77 20.5136C222.004 20.7609 221.182 20.3403 220.935 19.5738C220.687 18.8077 221.108 17.9856 221.874 17.7378C222.64 17.4906 223.462 17.9111 223.71 18.6777C223.957 19.4438 223.537 20.2659 222.77 20.5136Z" fill="#33535F"/>
</svg>
