<?xml version="1.0" encoding="UTF-8"?>
<svg version="1.1" xmlns="http://www.w3.org/2000/svg" width="136" height="40">
<path d="M0 0 C44.88 0 89.76 0 136 0 C136 13.2 136 26.4 136 40 C91.12 40 46.24 40 0 40 C0 26.8 0 13.6 0 0 Z " fill="#F2F2F2" transform="translate(0,0)"/>
<path d="M0 0 C44.88 0 89.76 0 136 0 C136 13.2 136 26.4 136 40 C91.12 40 46.24 40 0 40 C0 26.8 0 13.6 0 0 Z M8.5625 10.625 C6.4433792 15.20230092 6.19976838 19.03694732 7 24 C9.21242439 28.42484878 11.94799616 31.19476657 16 34 C18.69494441 34.8983148 20.2614511 35.13051184 23.02738953 35.14717102 C24.25311424 35.15790398 24.25311424 35.15790398 25.50360107 35.16885376 C26.84312836 35.17288712 26.84312836 35.17288712 28.2097168 35.17700195 C29.15315445 35.18357315 30.0965921 35.19014435 31.06861877 35.19691467 C34.19548623 35.21664855 37.32230563 35.22831134 40.44921875 35.23828125 C41.51767344 35.24235678 42.58612812 35.2464323 43.68696022 35.25063133 C49.34363232 35.2714938 55.00028016 35.28579401 60.65698242 35.29516602 C66.49334244 35.30622261 72.32932038 35.34061366 78.16554546 35.38033772 C82.65835772 35.40651354 87.15107915 35.4148588 91.64396095 35.41844749 C93.79488514 35.42331198 95.94580531 35.43492199 98.09665489 35.45348549 C101.11251237 35.47789387 104.12738405 35.47690841 107.14331055 35.4699707 C108.02620758 35.48278076 108.90910461 35.49559082 109.8187561 35.50878906 C116.46674683 35.45325524 122.09057841 33.93972806 126.875 29.10546875 C129.52850366 24.58161356 130.79736506 21.38221414 130 16 C127.95682161 10.32450447 124.40252559 6.70126279 119 4 C117.66022237 3.90031227 116.31570268 3.86065219 114.97224426 3.85282898 C114.12978149 3.84567368 113.28731873 3.83851837 112.41932678 3.83114624 C111.49309006 3.82845734 110.56685333 3.82576843 109.61254883 3.82299805 C108.6383902 3.81642685 107.66423157 3.80985565 106.66055298 3.80308533 C103.42604501 3.78332213 100.19158356 3.771682 96.95703125 3.76171875 C95.85331366 3.75764322 94.74959606 3.7535677 93.61243248 3.74936867 C87.76888591 3.72849345 81.92536292 3.71419891 76.08178711 3.70483398 C70.04688798 3.69377622 64.01235825 3.65938744 57.97758961 3.61966228 C53.33726824 3.59350696 48.69703494 3.58514301 44.05664635 3.58155251 C41.83232826 3.57668251 39.60801421 3.56505684 37.38376808 3.54651451 C34.26702336 3.52215046 31.15123476 3.52308361 28.03442383 3.5300293 C27.11830826 3.51721924 26.20219269 3.50440918 25.25831604 3.49121094 C18.05158378 3.54963314 13.59607793 5.20422377 8.5625 10.625 Z " fill="#FEFEFE" transform="translate(0,0)"/>
<path d="M0 0 C-0.33 1.98 -0.66 3.96 -1 6 C-2.98 6 -4.96 6 -7 6 C-6.34 7.98 -5.68 9.96 -5 12 C-5.66 12 -6.32 12 -7 12 C-7 11.01 -7 10.02 -7 9 C-10.93075644 9.57452746 -10.93075644 9.57452746 -14 12 C-13.44894091 8.0507432 -12.61064629 4.65079826 -11 1 C-8 2 -8 2 -7 4 C-6.67 3.01 -6.34 2.02 -6 1 C-3 0 -3 0 0 0 Z " fill="#868686" transform="translate(36,13)"/>
<path d="M0 0 C2.64 0 5.28 0 8 0 C8 0.66 8 1.32 8 2 C6.02 2 4.04 2 2 2 C2 2.99 2 3.98 2 5 C3.65 5 5.3 5 7 5 C7 5.33 7 5.66 7 6 C5.35 6 3.7 6 2 6 C2 6.99 2 7.98 2 9 C3.98 9 5.96 9 8 9 C8 9.66 8 10.32 8 11 C5.36 11 2.72 11 0 11 C0 7.37 0 3.74 0 0 Z " fill="#6E6E6E" transform="translate(43,14)"/>
<path d="M0 0 C1.4540625 0.0309375 1.4540625 0.0309375 2.9375 0.0625 C2.9375 3.3625 2.9375 6.6625 2.9375 10.0625 C1.2875 10.3925 -0.3625 10.7225 -2.0625 11.0625 C-2.3925 10.4025 -2.7225 9.7425 -3.0625 9.0625 C-1.4125 9.0625 0.2375 9.0625 1.9375 9.0625 C1.6075 8.4025 1.2775 7.7425 0.9375 7.0625 C0.897508 5.06289988 0.89403201 3.06202758 0.9375 1.0625 C-0.0525 1.5575 -0.0525 1.5575 -1.0625 2.0625 C-0.7325 4.0425 -0.4025 6.0225 -0.0625 8.0625 C-1.3825 7.4025 -2.7025 6.7425 -4.0625 6.0625 C-4.105221 4.39638095 -4.10313832 2.72867115 -4.0625 1.0625 C-3.0625 0.0625 -3.0625 0.0625 0 0 Z " fill="#777777" transform="translate(65.0625,16.9375)"/>
<path d="M0 0 C2.31 0 4.62 0 7 0 C7 2.64 7 5.28 7 8 C6.67 8 6.34 8 6 8 C5.67 6.02 5.34 4.04 5 2 C4.34 2 3.68 2 3 2 C2.67 3.98 2.34 5.96 2 8 C1.34 8 0.68 8 0 8 C0 5.36 0 2.72 0 0 Z " fill="#787878" transform="translate(52,17)"/>
<path d="M0 0 C1.65 0 3.3 0 5 0 C5.33 0.66 5.66 1.32 6 2 C4.68 1.67 3.36 1.34 2 1 C2 1.66 2 2.32 2 3 C3.32 3.33 4.64 3.66 6 4 C5.67 5.32 5.34 6.64 5 8 C3.35 7.67 1.7 7.34 0 7 C0.66 6.67 1.32 6.34 2 6 C2.66 6.33 3.32 6.66 4 7 C3.67 6.34 3.34 5.68 3 5 C2.01 4.67 1.02 4.34 0 4 C0 2.68 0 1.36 0 0 Z " fill="#737373" transform="translate(78,17)"/>
<path d="M0 0 C-0.33 1.98 -0.66 3.96 -1 6 C-2.65 6 -4.3 6 -6 6 C-5.67 5.34 -5.34 4.68 -5 4 C-5.33 3.01 -5.66 2.02 -6 1 C-3 0 -3 0 0 0 Z " fill="#737373" transform="translate(36,13)"/>
<path d="M0 0 C0 1.65 0 3.3 0 5 C-2.31 4.67 -4.62 4.34 -7 4 C-7 3.01 -7 2.02 -7 1 C-1.125 0 -1.125 0 0 0 Z " fill="#FFFFFF" transform="translate(52,19)"/>
<path d="M0 0 C0.33 0 0.66 0 1 0 C1 3.63 1 7.26 1 11 C0.01 9.68 -0.98 8.36 -2 7 C-2.99 6.67 -3.98 6.34 -5 6 C-5 5.34 -5 4.68 -5 4 C-3.68 4 -2.36 4 -1 4 C-0.67 2.68 -0.34 1.36 0 0 Z " fill="#DDDDDD" transform="translate(85,14)"/>
</svg>
